<mxfile host="app.diagrams.net" modified="2024-06-12T13:35:34.524Z" agent="Mozilla/5.0 (X11; Ubuntu; Linux x86_64; rv:126.0) Gecko/20100101 Firefox/126.0" version="24.4.9" etag="X7dlVnCImuYy46C1eaem" type="github">
  <diagram name="Page-1" id="wRr1oHkMpXy4CySyobYd">
    <mxGraphModel>
      <root>
        <mxCell id="0" />
        <mxCell id="1" parent="0" />
      </root>
    </mxGraphModel>
  </diagram>
</mxfile>
